<svg xmlns:ns0="http://www.w3.org/2000/svg" xmlns="http://www.w3.org/2000/svg" xmlns:xlink="http://www.w3.org/1999/xlink" width="1240" height="3000" viewBox="0 0 1240 3000"><ns0:circle cx="408" cy="512" r="90.5" stroke="black" stroke-width="3" /><ns0:circle cx="407.5" cy="512.5" r="81.5" stroke="black" stroke-width="6" /><ns0:circle cx="408" cy="512" r="73" stroke="black" stroke-width="6" /><ns0:circle cx="407.5" cy="512.5" r="63.5" stroke="black" stroke-width="6" /><ns0:circle cx="408" cy="512" r="54" stroke="black" stroke-width="6" /><ns0:circle cx="408" cy="512" r="45" stroke="black" stroke-width="6" /><ns0:circle cx="408" cy="512" r="36" stroke="black" stroke-width="6" /><ns0:circle cx="408" cy="512" r="18" fill="black" stroke="black" stroke-width="6" /><ns0:circle cx="832" cy="512" r="90.5" stroke="black" stroke-width="3" /><ns0:circle cx="831.5" cy="512.5" r="81.5" stroke="black" stroke-width="6" /><ns0:circle cx="832" cy="512" r="73" stroke="black" stroke-width="6" /><ns0:circle cx="831.5" cy="512.5" r="63.5" stroke="black" stroke-width="6" /><ns0:circle cx="832" cy="512" r="54" stroke="black" stroke-width="6" /><ns0:circle cx="832" cy="512" r="45" stroke="black" stroke-width="6" /><ns0:circle cx="832" cy="512" r="36" stroke="black" stroke-width="6" /><ns0:circle cx="832" cy="512" r="18" fill="black" stroke="black" stroke-width="6" /><ns0:circle cx="399" cy="1578" r="57" fill="black" /><ns0:circle cx="769" cy="2004" r="57" fill="black" /><ns0:circle cx="505" cy="1878" r="154.5" stroke="black" stroke-width="57" /><ns0:circle cx="504.5" cy="1877.5" r="65.5" stroke="black" stroke-width="24" /><ns0:circle cx="455.5" cy="2333.5" r="123" stroke="black" stroke-width="57" /><ns0:circle cx="455.5" cy="2333.5" r="42.5" stroke="black" stroke-width="30" /><ns0:circle cx="683.5" cy="2222.5" r="40.5" fill="black" /><ns0:circle cx="815.5" cy="2269.5" r="46.5" fill="black" /><ns0:circle cx="677.5" cy="2344.5" r="46.5" fill="black" /></svg>